<?xml version="1.0" standalone="no"?>
<!DOCTYPE svg PUBLIC "-//W3C//DTD SVG 20010904//EN"
 "http://www.w3.org/TR/2001/REC-SVG-20010904/DTD/svg10.dtd">
<svg version="1.0" xmlns="http://www.w3.org/2000/svg"
 width="1176.000000pt" height="1142.000000pt" viewBox="0 0 1176.000000 1142.000000"
 preserveAspectRatio="xMidYMid meet">

<g transform="translate(0.000000,1142.000000) scale(0.100000,-0.100000)"
fill="#000000" stroke="none">
<path d="M4172 10435 c-115 -36 -226 -175 -257 -322 -50 -233 39 -411 240
-485 58 -21 76 -22 626 -27 479 -5 569 -8 584 -21 26 -21 14 -146 -21 -218
-47 -96 -109 -123 -379 -167 -606 -97 -1165 -340 -1625 -706 -121 -96 -359
-330 -447 -439 -213 -265 -364 -582 -422 -884 -97 -506 -2 -1218 227 -1698 67
-140 98 -180 169 -214 121 -60 239 -31 322 79 81 106 109 220 117 477 6 163 1
261 -32 675 -20 240 -11 404 27 555 93 364 405 784 787 1057 98 70 298 177
417 222 217 84 489 139 771 156 l111 7 1 -103 c0 -136 -4 -142 -105 -158 -481
-76 -954 -346 -1173 -670 -58 -87 -123 -230 -148 -326 -69 -264 -50 -572 50
-825 123 -311 280 -498 516 -615 89 -44 176 -69 335 -99 346 -66 653 -82 1257
-69 412 9 427 10 478 33 130 57 229 249 201 393 -20 109 -74 177 -176 224 -76
35 -189 42 -838 48 -595 6 -788 16 -835 40 -56 29 -71 60 -68 144 l3 76 945 0
945 0 59 22 c79 30 120 64 155 125 100 175 41 397 -128 483 -69 35 -141 43
-441 50 -146 4 -273 9 -284 12 -17 5 -18 15 -14 132 6 201 12 205 288 214 102
4 203 12 225 18 91 26 143 119 152 276 5 70 2 88 -17 127 -48 100 -154 142
-388 156 -166 9 -194 18 -213 68 -11 27 -6 162 6 182 14 23 235 2 418 -41 344
-80 661 -265 872 -506 100 -114 163 -210 235 -358 68 -140 93 -217 122 -375
19 -107 21 -166 28 -865 6 -574 11 -759 20 -788 20 -55 77 -116 134 -143 143
-67 308 6 433 191 88 130 178 339 222 513 44 175 56 287 55 537 0 422 -46 734
-141 960 -199 477 -547 879 -1018 1174 -106 66 -378 205 -473 242 -208 79
-325 118 -539 179 -133 38 -255 76 -271 84 -130 67 -167 276 -59 332 28 15 97
18 617 24 409 5 597 11 623 19 110 35 185 87 233 162 68 109 72 299 8 432 -53
111 -155 208 -240 228 -22 5 -724 8 -1639 8 -1306 0 -1608 -3 -1643 -14z
m1218 -3023 c0 -86 -4 -132 -12 -140 -8 -8 -66 -12 -196 -12 l-185 0 7 48 c18
133 151 230 319 231 l67 1 0 -128z"/>
<path d="M5010 5470 c-413 -14 -551 -51 -686 -186 -182 -181 -254 -564 -160
-843 34 -101 80 -175 156 -252 151 -153 309 -219 689 -289 425 -79 652 -134
822 -200 386 -149 653 -381 842 -730 148 -276 140 -514 -24 -737 -60 -80 -253
-249 -324 -283 -117 -56 -274 -77 -335 -45 -42 22 -76 71 -95 139 -16 54 -16
79 -6 260 7 111 17 244 22 296 24 214 -27 374 -162 508 -246 245 -737 381
-1234 343 -82 -7 -184 -19 -225 -27 -100 -20 -210 -76 -281 -141 -129 -120
-111 -216 59 -302 87 -44 136 -55 532 -121 508 -84 575 -102 616 -165 26 -40
20 -172 -16 -324 -48 -207 -53 -254 -47 -401 8 -167 26 -246 78 -332 135 -229
385 -375 700 -410 123 -14 387 0 514 27 349 75 739 347 949 663 293 440 311
1039 46 1503 -224 391 -571 642 -1091 789 -76 21 -241 62 -366 90 -436 98
-534 126 -661 188 -202 99 -252 189 -182 329 34 69 80 106 150 123 109 26 340
23 1585 -16 233 -7 293 1 358 49 162 122 115 398 -78 452 -27 7 -122 16 -210
19 -956 37 -1402 43 -1935 26z"/>
</g>
</svg>
