<?xml version="1.0" encoding="UTF-8" standalone="no"?>
<svg
   xmlns:dc="http://purl.org/dc/elements/1.1/"
   xmlns:cc="http://creativecommons.org/ns#"
   xmlns:rdf="http://www.w3.org/1999/02/22-rdf-syntax-ns#"
   xmlns:svg="http://www.w3.org/2000/svg"
   xmlns="http://www.w3.org/2000/svg"
   viewBox="0 0 533.33331 160.73973"
   height="160.73973"
   width="533.33331"
   xml:space="preserve"
   id="svg2"
   version="1.1"><metadata
     id="metadata8"><rdf:RDF><cc:Work
         rdf:about=""><dc:format>image/svg+xml</dc:format><dc:type
           rdf:resource="http://purl.org/dc/dcmitype/StillImage" /></cc:Work></rdf:RDF></metadata><defs
     id="defs6" /><g
     transform="matrix(1.3333333,0,0,-1.3333333,0,160.73973)"
     id="g10"><g
       id="g12"><path
         id="path14"
         style="fill:#112e6f;fill-opacity:0.94117599;fill-rule:nonzero;stroke:none"
         d="M 1.414,1.348 C 1.047,2.055 0.523,3.531 0.246,4.625 c -0.492,1.965 -0.465,2.055 2.18,6.629 2.722,4.711 3.836,7.355 5.73,13.59 0.582,1.91 2.395,7.039 4.032,11.39 1.632,4.356 3.3,9.442 3.703,11.305 0.961,4.469 1.882,7.844 2.91,10.688 1.441,3.98 2.172,7.441 2.687,12.757 0.84,8.606 2.313,12.793 5.524,15.696 1.468,1.324 2.058,1.558 3.91,1.558 1.707,0 2.398,0.235 3.183,1.067 0.551,0.586 2.161,1.64 3.583,2.34 1.421,0.703 3.394,1.918 4.39,2.699 2.606,2.047 5.223,2.941 8.617,2.941 2.887,0 4.422,0.555 8.516,3.074 0.687,0.422 1.723,0.493 3.668,0.247 4.16,-0.52 8.43,-0.243 11.523,0.746 3.778,1.207 4.461,0.832 4.332,-2.36 -0.14,-3.597 -1.121,-5.289 -6.023,-10.39 -4.734,-4.93 -5.762,-6.352 -5.356,-7.418 0.317,-0.821 1.961,-0.469 4.793,1.015 3.176,1.668 5.528,1.453 10.618,-0.976 5.445,-2.594 7.925,-4.844 7.925,-7.18 0,-2.519 -1.253,-7.508 -2.386,-9.5 -2.028,-3.566 -3.653,-4.351 -12.352,-5.957 -0.523,-0.094 -2.008,-1.019 -3.305,-2.051 -3.152,-2.511 -3.078,-3.664 0.364,-5.437 1.343,-0.696 3.039,-1.828 3.765,-2.524 l 1.321,-1.257 -0.149,-4.977 c -0.144,-4.902 -0.172,-5.008 -1.844,-7.453 -1.812,-2.656 -2.089,-3.625 -1.031,-3.625 1.383,0 5.828,-1.965 7.188,-3.18 1.332,-1.191 1.422,-1.473 1.48,-4.582 0.031,-1.824 0.285,-4.133 0.563,-5.125 0.816,-2.945 0.597,-5.047 -0.856,-8.152 -2.086,-4.465 -3.64,-4.391 -9.054,0.441 -1.774,1.586 -3.579,2.727 -5.098,3.223 -1.434,0.469 -3.469,1.719 -5.231,3.211 -4.871,4.125 -7.488,4.629 -13.523,2.601 -4.063,-1.363 -5.191,-1.105 -6.246,1.422 -0.762,1.817 -0.57,2.867 0.73,4.047 0.493,0.441 0.895,0.988 0.895,1.215 0,0.223 -1.133,0.906 -2.516,1.519 -2.453,1.082 -2.508,1.149 -2.371,2.782 0.113,1.359 0.5,1.945 2.082,3.148 1.067,0.813 2.949,1.836 4.184,2.274 1.23,0.437 2.238,0.925 2.238,1.086 0,0.156 -0.59,0.406 -1.312,0.55 -3.332,0.668 -4.477,5.637 -2.036,8.871 0.723,0.957 2.028,2.719 2.895,3.914 2.906,3.985 5.176,6.165 7.656,7.336 1.348,0.641 3.106,1.887 3.906,2.77 0.797,0.883 2.172,2.418 3.051,3.414 l 1.602,1.809 h 3.687 c 3.09,0 3.789,0.136 4.313,0.855 1.637,2.238 -1.727,3.422 -7.254,2.551 -4.293,-0.68 -7.5,-2.668 -10.313,-6.403 -3.504,-4.648 -7.535,-8.492 -9.238,-8.812 -1.883,-0.352 -3.973,0.492 -5.027,2.031 -1.125,1.649 -1.903,4.594 -1.567,5.938 0.383,1.515 2.399,4.39 4.434,6.328 2.219,2.109 6.32,7.953 7.48,10.66 0.512,1.195 1.739,2.863 2.719,3.707 2.988,2.555 2.352,3.602 -1.574,2.578 -2.734,-0.711 -4.973,-1.629 -12.516,-5.129 -1.144,-0.531 -2.718,-0.965 -3.496,-0.965 -1.094,0 -1.461,-0.23 -1.64,-1.015 -0.868,-3.821 -1.118,-4.789 -1.543,-5.992 -0.618,-1.739 -3.09,-9.852 -3.727,-12.211 -0.508,-1.879 -2.062,-6.735 -2.539,-7.914 -0.148,-0.371 -0.621,-2 -1.051,-3.618 C 24.156,39.777 19.586,25.879 18.113,23.113 17.781,22.488 16.895,20.25 16.145,18.141 14.551,13.645 13.055,10.672 11.207,8.313 10.477,7.379 9.617,6.121 9.297,5.512 8.98,4.906 7.801,3.43 6.684,2.234 4.203,-0.414 2.477,-0.707 1.414,1.348 Z m 58.043,36.828 c 1.016,0.851 1.969,1.226 3.141,1.226 1.98,0 2.769,0.641 2.769,2.258 0,0.649 -0.246,1.422 -0.543,1.719 -0.742,0.746 -3.109,0.66 -4.179,-0.148 -0.481,-0.368 -1.278,-0.664 -1.766,-0.664 -0.488,0 -1.961,-1.016 -3.277,-2.262 -1.313,-1.242 -2.707,-2.262 -3.094,-2.262 -0.75,0 -0.93,-0.527 -0.367,-1.098 0.187,-0.187 1.582,-0.265 3.097,-0.171 2.188,0.14 3.063,0.429 4.219,1.402 z M 363.84,9.414 c -0.613,0.125 -1.602,0.613 -2.195,1.078 -1.301,1.024 -2.887,1.352 -7.165,1.473 -4.242,0.121 -5.125,0.844 -5.125,4.184 0,3.445 1.043,4.546 8.551,9.007 2.535,1.508 2.949,2.715 1.164,3.395 -0.625,0.238 -1.851,1.148 -2.726,2.023 -1.211,1.207 -1.969,1.59 -3.16,1.59 -3.375,0 -4.356,3.289 -2.246,7.524 1.503,3.019 2.835,4.187 5.242,4.601 l 1.992,0.348 -0.156,5.41 c -0.137,4.645 -0.024,5.758 0.789,7.895 1.672,4.375 1.058,5.425 -3.168,5.425 -3.192,0 -5.496,1.024 -7.528,3.332 -2.629,2.996 -2.195,6.164 0.84,6.164 2.473,0 6.086,1.043 7.875,2.274 4.031,2.765 7.981,3.66 10.938,2.476 2.703,-1.082 5.863,-5.429 6.261,-8.613 0.348,-2.801 -0.386,-6.707 -1.914,-10.152 -0.73,-1.649 -1.191,-3.715 -1.363,-6.114 -0.328,-4.609 -0.004,-4.984 3.504,-4.05 3.617,0.961 5.309,0.843 7.059,-0.492 1.695,-1.293 3.316,-4.118 3.316,-5.778 0,-0.601 -0.301,-1.816 -0.672,-2.703 -0.453,-1.082 -0.637,-2.859 -0.562,-5.461 0.125,-4.574 -0.352,-5.316 -4.25,-6.582 l -2.426,-0.793 -0.262,-4.082 c -0.301,-4.684 -0.859,-6.363 -3.012,-9.055 -2.976,-3.722 -5.984,-5.074 -9.601,-4.324 z M 122.512,20.613 c -1.637,1.145 -1.711,4.629 -0.239,11.164 1.11,4.926 1.684,6.415 4.426,11.504 1.735,3.211 3.422,6.508 3.754,7.321 0.836,2.054 0.395,4.968 -1.074,7.113 -1.18,1.723 -1.227,1.98 -0.934,5.426 0.617,7.328 2.594,12.648 5.676,15.289 2.113,1.808 3.828,2.347 6.094,1.926 1.433,-0.27 3.836,-2.45 3.836,-3.481 0,-0.242 0.637,-2.047 1.414,-4.012 1.723,-4.367 1.578,-5.199 -1.43,-8.113 -1.234,-1.195 -2.246,-2.555 -2.246,-3.023 0,-1.965 -1.379,-12.422 -1.961,-14.895 -2.078,-8.781 -3.516,-12.223 -9.637,-23.113 -0.586,-1.039 -1.597,-2.309 -2.253,-2.824 -1.403,-1.106 -4.055,-1.239 -5.426,-0.282 z m 72.386,2.539 c -1.976,0.575 -3.21,2.149 -3.5,4.469 -0.449,3.559 1.11,5.594 7.247,9.465 1.296,0.82 3.011,2.231 3.808,3.137 2.18,2.484 4.293,7.504 5.359,12.734 1.946,9.551 1.743,11.996 -1.386,16.68 -2.262,3.39 -9.903,11.418 -12.614,13.262 -1.777,1.207 -2.308,1.343 -4.55,1.183 -4.387,-0.316 -12.914,-5.035 -19.867,-10.988 -4.469,-3.828 -7.415,-4.285 -12.872,-1.996 -1.867,0.785 -3.984,2.07 -4.812,2.926 -1.324,1.367 -1.481,1.8 -1.477,4.14 0.004,2.949 0.86,4.981 2.719,6.442 1.09,0.859 1.727,0.957 5.547,0.867 5.523,-0.137 5.797,-0.028 18.562,7.375 2.364,1.367 5.008,2.812 5.879,3.207 9.106,4.14 11.829,4.082 17.688,-0.363 4.941,-3.75 19.598,-18.75 20.976,-21.469 1.793,-3.543 2.075,-10.449 0.719,-17.871 -0.543,-2.981 -1.297,-7.149 -1.668,-9.262 -0.855,-4.836 -1.781,-7.809 -3.23,-10.402 -1.196,-2.141 -4.531,-5.879 -5.246,-5.879 -0.477,0 -7.196,-4.399 -10.168,-6.653 -2.071,-1.574 -4.145,-1.867 -7.114,-1.004 z m 104.364,3.028 c -0.676,0.73 -2.149,3.125 -3.27,5.32 -2.414,4.742 -4.816,7.699 -8.254,10.16 -4.242,3.039 -5.433,6.227 -3.508,9.387 0.86,1.406 1.016,1.469 3.747,1.469 1.687,0 3.894,-0.367 5.421,-0.907 1.414,-0.496 3.442,-0.906 4.504,-0.91 1.395,-0.004 3.012,-0.558 5.778,-1.992 4.961,-2.562 5.566,-3.371 5.449,-7.23 -0.051,-1.637 -0.094,-3.641 -0.102,-4.45 -0.031,-4.867 -0.379,-6.05 -2.488,-8.535 -2.336,-2.75 -2.519,-2.886 -4.562,-3.32 -1.266,-0.273 -1.657,-0.125 -2.715,1.008 z m -41.746,6.66 c -0.649,0.352 -1.715,1.348 -2.375,2.211 -0.961,1.258 -1.203,2.07 -1.203,4.027 0,2.141 0.253,2.84 2.027,5.535 1.113,1.696 2.25,3.809 2.527,4.7 0.281,0.89 1.41,2.957 2.516,4.589 1.105,1.633 2.051,3.559 2.105,4.278 0.086,1.187 -0.175,1.445 -2.765,2.75 -1.571,0.789 -3.371,1.918 -4.004,2.504 -1.071,0.996 -1.129,1.285 -0.949,4.504 0.25,4.39 1.179,5.828 4.457,6.886 1.289,0.418 3.793,0.887 5.562,1.043 1.774,0.157 3.477,0.489 3.785,0.731 0.906,0.715 0.696,4.121 -0.34,5.433 -2.879,3.664 1.258,12.36 6.286,13.211 2.195,0.371 3.488,-0.312 6.074,-3.215 2.386,-2.675 3.429,-5.343 3.574,-9.144 0.094,-2.539 0.269,-3.234 0.809,-3.234 0.378,0 2.253,0.914 4.164,2.035 4.679,2.738 5.992,2.73 8.437,-0.047 1.008,-1.145 2.738,-2.66 3.848,-3.363 1.109,-0.704 2.211,-1.649 2.449,-2.102 0.793,-1.512 0.086,-3.691 -1.664,-5.141 -2.461,-2.035 -10.074,-5.621 -15.391,-7.246 -5.019,-1.531 -7.183,-2.574 -9.238,-4.449 -1.695,-1.547 -5.008,-6.562 -6.176,-9.344 -0.511,-1.222 -1.219,-2.836 -1.57,-3.582 -0.352,-0.746 -1.473,-3.136 -2.488,-5.312 -2.161,-4.617 -4.047,-6.942 -6.571,-8.09 -2.16,-0.981 -2.375,-0.992 -3.886,-0.168 z M 366.676,81 c -0.543,0.223 -1.336,0.938 -1.758,1.582 -0.965,1.469 -0.703,2.016 3.289,6.875 3.367,4.094 4.535,6.02 3.656,6.012 -1.363,-0.016 -5.472,-1.742 -7.133,-2.992 -1.617,-1.223 -2.597,-1.149 -3.605,0.265 -1.543,2.168 -2.492,6.547 -1.871,8.625 0.527,1.762 3.184,4.508 4.359,4.508 0.364,0 2.52,0.836 4.793,1.859 3.574,1.61 4.754,1.911 8.75,2.231 2.543,0.203 6.649,0.621 9.121,0.934 4.719,0.585 4.375,0.64 8.071,-1.25 0.5,-0.254 1.515,-0.75 2.261,-1.102 1.579,-0.75 3.395,-3.988 3.391,-6.047 0,-1.473 -0.906,-3.144 -3.062,-5.664 -1.297,-1.516 -1.497,-1.586 -5.153,-1.828 -3.332,-0.219 -4.058,-0.43 -5.82,-1.684 -1.11,-0.789 -3.137,-2.172 -4.504,-3.078 -1.367,-0.906 -3.199,-2.304 -4.07,-3.105 -2.879,-2.649 -7.61,-6.102 -8.676,-6.328 -0.574,-0.121 -1.492,-0.039 -2.039,0.187 z m -21.906,4.649 c -3.606,1.867 -4.895,3.875 -4.903,7.648 -0.015,4.16 1.246,6.375 4.61,8.102 1.921,0.984 3.011,1.054 5.554,0.359 3.203,-0.875 8.821,-7.625 8.821,-10.598 0,-1.343 -1.122,-2.922 -2.079,-2.922 -0.23,0 -1.437,-0.675 -2.675,-1.507 -2.184,-1.457 -4.727,-2.563 -5.903,-2.563 -0.312,0 -1.855,0.668 -3.425,1.481 z M 58.359,104.356 c -0.5,0.101 -1.656,0.414 -2.578,0.691 -1.254,0.379 -3.07,0.359 -7.332,-0.09 -5.875,-0.617 -7.101,-0.484 -10.984,1.172 -3.285,1.398 -3.75,5.156 -0.945,7.598 3.375,2.933 9.07,4.59 18.898,5.496 3.855,0.359 8.801,0.855 10.992,1.109 4.106,0.473 6.301,0.227 9.371,-1.055 2.692,-1.125 3.379,-2.253 3.371,-5.519 -0.007,-2.656 -0.129,-2.996 -1.558,-4.473 -0.856,-0.883 -1.789,-1.601 -2.082,-1.601 -0.66,0 -5.977,-1.657 -7.207,-2.246 -2.039,-0.977 -7.535,-1.575 -9.946,-1.082 z" /></g></g></svg>